<svg version="1.2" xmlns="http://www.w3.org/2000/svg" viewBox="0 0 1024 1024" width="1024" height="1024">
	<style>
		.s0 { fill: #f75405 } 
	</style>
	<path id="Path 0" fill-rule="evenodd" class="s0" d="m529.5 133.64c24.75 0.22 51.75 0.82 60 1.32 8.25 0.5 21.75 1.4 30 1.99 8.25 0.59 25.13 2.23 37.5 3.63 12.38 1.41 29.92 3.64 39 4.97 9.08 1.33 20.33 3.09 25 3.92 4.67 0.82 16.15 3.14 25.5 5.14 9.35 2.01 19.25 4.65 22 5.86 2.75 1.22 6.52 3.52 8.39 5.12 1.86 1.6 5.23 6.05 11.61 16.88l-0.17 16.51c-0.11 11.76-2.06 35.99-6.73 84.02-3.61 37.13-7.24 74.02-8.07 82-0.82 7.98-2.59 18.33-3.94 23-1.34 4.68-4.21 13.45-6.37 19.5-2.17 6.05-4.45 13.36-5.08 16.25-0.63 2.89-3.15 23.36-5.61 45.5-2.46 22.14-6.07 54.2-8.02 71.25-1.96 17.05-5.81 50.35-8.56 74-2.76 23.65-6.36 54.7-8.02 69-1.65 14.3-5.93 50.08-9.5 79.5-3.57 29.42-7.2 58-8.08 63.5-0.87 5.5-2.65 12.25-3.95 15-1.3 2.75-4.73 7.63-7.63 10.85-3.61 4-7.16 6.72-11.27 8.62-3.3 1.52-12.3 4.82-20 7.33-7.7 2.5-17.6 5.46-22 6.57-4.4 1.11-16.33 3.6-26.5 5.53-10.17 1.94-24.13 4.2-31 5.04-6.87 0.84-18.13 2-25 2.57-6.87 0.57-24.2 1.31-38.5 1.64-15.26 0.36-35.5 0.12-49-0.56-12.65-0.65-28.85-1.84-36-2.66-7.15-0.81-17.73-2.17-23.5-3.01-5.77-0.84-15.23-2.44-21-3.54-5.77-1.11-15.68-3.31-22-4.89-6.32-1.59-16.9-4.52-23.5-6.51-6.6-2-14.19-4.84-16.87-6.31-2.68-1.47-6.71-4.69-8.95-7.17-2.25-2.48-5.11-6.75-6.37-9.5-1.39-3.03-3.07-10.31-4.28-18.5-1.09-7.42-3.6-26.77-5.56-43-1.97-16.23-5.14-42.55-7.05-58.5-1.9-15.95-5.5-46.77-7.98-68.5-2.48-21.73-6.31-55.02-8.49-74-2.19-18.98-6.67-58.58-9.96-88-3.29-29.42-6.47-57.32-7.08-62-0.69-5.37-3.44-15.49-7.46-27.5-4.51-13.48-6.81-22.19-7.91-30-0.85-6.05-4.68-43.4-8.52-83-3.83-39.6-7.42-77.51-7.99-84.25-0.72-8.58-0.71-13.67 0.04-17 0.58-2.61 2.27-6.97 3.75-9.69 1.47-2.72 4.82-7.11 7.43-9.75 2.71-2.75 7.43-6.05 11-7.69 3.44-1.59 10.75-4.04 16.25-5.46 5.5-1.41 16.98-3.93 25.5-5.6 8.52-1.67 23.82-4.36 34-5.98 10.18-1.62 26.15-3.88 35.5-5.02 9.35-1.14 26-2.95 37-4.02 11-1.08 30.13-2.44 42.5-3.03 12.38-0.58 25.65-1.22 29.5-1.42 3.85-0.19 27.25-0.17 52 0.05zm-99.5 31.85c-12.37 0.88-26.55 2.03-31.5 2.57-4.95 0.53-13.5 1.45-19 2.04-5.5 0.6-20.12 2.61-32.5 4.48-12.37 1.86-27.23 4.26-33 5.33-5.77 1.07-16.8 3.36-24.5 5.09-7.7 1.73-14.56 3.5-15.24 3.93-0.73 0.47 3.63 1.71 10.5 3.01 6.46 1.22 16.92 3.06 23.24 4.1 6.32 1.03 19.15 3 28.5 4.37 9.35 1.37 23.07 3.18 30.5 4.02 7.43 0.84 19.57 1.99 27 2.54 7.43 0.56 24.07 1.68 37 2.5 12.93 0.81 39.25 1.64 58.5 1.86 23.53 0.26 28.45 0.17 15-0.28-16-0.53-11.1-0.68 24.5-0.77 30.7-0.07 51.01-0.61 65.5-1.73 11.55-0.89 27.52-2.28 35.5-3.1 7.98-0.81 16.75-1.74 19.5-2.07 2.75-0.32 15.13-2.11 27.5-3.97 12.38-1.86 27.23-4.25 33-5.32 5.77-1.07 15.67-3.1 22-4.53 6.33-1.42 14.42-2.62 18-2.65 6.26-0.07 6.39-0.12 3.5-1.4-1.65-0.73-8.17-2.31-14.5-3.5-6.33-1.2-16.67-3.02-23-4.05-6.33-1.03-19.15-3-28.5-4.37-9.35-1.37-23.08-3.18-30.5-4.02-7.42-0.84-19.58-1.99-27-2.54-7.42-0.56-24.3-1.73-37.5-2.6-14.15-0.93-41.03-1.67-65.5-1.8-22.82-0.12-48.93 0.11-58 0.52-9.07 0.41-26.62 1.46-39 2.34zm297 55c-9.62 1.91-24.48 4.62-33 6-8.52 1.39-24.27 3.63-35 4.97-10.73 1.35-28.95 3.36-40.5 4.48-11.55 1.11-30.23 2.55-41.5 3.19-11.27 0.64-43.45 1.16-71.5 1.16-28.05-0.01-59.1-0.51-69-1.13-9.9-0.61-24.52-1.58-32.5-2.15-7.98-0.57-24.62-2.18-37-3.57-12.37-1.39-26.77-3.19-32-4-5.23-0.81-11.75-1.67-14.5-1.91-2.75-0.24-11.75-1.77-20-3.39-8.25-1.62-19.27-3.89-24.5-5.05-5.23-1.15-9.73-2.1-10-2.1-0.27-0.01-0.18 2.81 0.2 6.25 0.39 3.44 3.19 32.59 6.23 64.76 3.05 32.18 6.22 64.8 7.06 72.5 0.84 7.7 2.36 16.93 3.37 20.5 1.02 3.57 3.97 13.25 6.56 21.5 2.59 8.25 5.35 19.27 6.12 24.5 0.77 5.23 3.45 27.73 5.95 50 2.5 22.27 6.1 54 8.01 70.5 1.91 16.5 3.48 30.79 3.49 31.75 0 0.96 0.46 1.75 1.01 1.75 0.55 0 7.41-4.99 15.25-11.08l14.25-11.08c1.07-12.89 2.08-16.94 3.8-20.34 1.39-2.75 4.02-6.44 5.86-8.2 1.84-1.76 5.59-4.19 8.34-5.4 3.29-1.44 7.05-2.21 11-2.23 3.3-0.01 7.8 0.32 10 0.73l4 0.76c41.07-36.04 57.27-50.22 62.5-54.77l9.5-8.27c1.2-12.88 2.35-18.42 3.34-20.62 0.99-2.2 3.57-5.71 5.73-7.81 2.16-2.09 5.73-4.67 7.93-5.73 2.2-1.05 6.7-2.2 10-2.55 3.32-0.35 7.79-0.16 10 0.43 2.2 0.59 5.8 2.36 8 3.93 2.2 1.58 5.69 5.32 7.75 8.3 2.53 3.66 4.19 7.55 5.09 11.93l1.32 6.5c27.78 12.74 39.67 18.22 44.34 20.4 4.67 2.18 9.74 4.45 11.25 5.03 2.42 0.94 3.2 0.7 6.5-2.03 2.06-1.7 5.55-4.01 7.75-5.12 3.35-1.7 5.47-1.96 13.09-1.65l9.08 0.37 56.33-63.5c-2.26-5.81-2.92-10.2-2.93-13.5-0.02-3.66 0.67-7.56 1.77-10 0.98-2.2 3.56-5.98 5.72-8.41 2.17-2.42 6.19-5.45 8.94-6.74 3.71-1.73 6.68-2.31 11.5-2.26 3.58 0.03 8.75 0.85 11.5 1.8l5 1.74c20.15-15.89 28.68-22.66 31.96-25.31 4.46-3.61 6.15-5.7 6.72-8.32 0.42-1.92 2.12-18.35 3.77-36.5 1.66-18.15 4.15-45.15 5.55-60 1.4-14.85 2.35-27.24 2.13-27.53-0.22-0.3-3.27 0.27-6.77 1.25-3.5 0.98-14.23 3.35-23.86 5.27zm-6.26 171.34c-0.42 0.37-1.43 3.6-2.25 7.17-0.82 3.57-2.84 8.64-4.49 11.25-1.74 2.76-5.2 6.2-8.25 8.2-2.89 1.9-7.27 3.92-9.75 4.48-2.48 0.56-6.3 1.02-8.5 1.01-3.9-0.01-4.32 0.35-17.07 14.77-7.19 8.14-20.02 22.87-28.5 32.74l-15.43 17.94c-1.05 14.82-1.88 18.45-3.72 22.11-1.39 2.75-4.27 6.54-6.4 8.42-2.13 1.88-5.68 4.24-7.88 5.23-2.48 1.12-6.46 1.82-10.5 1.85-5.12 0.04-7.56-0.51-11.5-2.56-2.75-1.43-6.27-3.81-7.82-5.27-1.55-1.47-4.14-5.03-5.75-7.92-2.55-4.57-3.87-5.72-10.18-8.88-3.99-2-13.1-6.24-20.25-9.43-7.15-3.19-18.4-8.25-25-11.25l-12-5.46c-6.98 3.1-11.93 4.24-15.5 4.53-4.62 0.38-7.88 0.06-11.25-1.11l-4.75-1.65c-33.8 30.61-50.2 45.35-58.26 52.5l-14.66 13c-1 11.63-2.06 16.8-3.01 19-0.95 2.2-3.08 5.58-4.75 7.5-1.69 1.96-5.84 4.77-9.42 6.39-5.79 2.61-7.11 2.83-13.9 2.33-4.12-0.31-8.4-0.84-9.5-1.18-1.54-0.47-6.75 3.17-22.75 15.92l-20.75 16.54c0.75 6.59 1.68 15.48 2.54 24 0.87 8.52 5.17 45.65 9.54 82.5 4.38 36.85 9.08 75.55 10.45 86 1.37 10.45 2.88 21.48 3.35 24.5 0.48 3.02 1.32 6.4 1.87 7.5 0.55 1.1 2.97 2.76 5.37 3.68 2.41 0.93 7.53 2.59 11.38 3.7 3.85 1.1 11.73 3.19 17.5 4.64 5.77 1.45 16.35 3.74 23.5 5.08 7.15 1.35 22.23 3.56 33.5 4.91 11.27 1.35 32.43 2.96 47 3.57 19.22 0.8 33.23 0.81 51 0.02 13.48-0.59 31.25-1.78 39.5-2.64 8.25-0.86 19.5-2.23 25-3.04 5.5-0.82 15.63-2.61 22.5-3.98 6.88-1.37 17.9-4.04 24.5-5.92 6.6-1.87 15.83-4.79 20.5-6.48 4.67-1.69 9.51-3.74 10.75-4.56 1.24-0.81 2.65-2.49 3.14-3.73 0.49-1.24 1.61-7.2 2.49-13.25 0.88-6.05 4.07-31.7 7.09-57 3.02-25.3 9.34-78.62 14.04-118.5 4.7-39.87 10.54-90.05 12.99-111.5 2.44-21.45 6.02-53.62 7.95-71.5 1.93-17.87 3.95-34.75 4.48-37.5 0.53-2.75 1.62-7.02 2.42-9.5 0.79-2.48 3.51-10.35 6.03-17.5 2.53-7.15 4.6-14.01 4.61-15.25 0-1.24-0.33-2.25-0.74-2.25-0.41 0.01-5.02 3.41-10.25 7.58-5.23 4.16-9.84 7.87-10.26 8.25zm-21.97 52.2c0.97-0.02 1.14 1.92 0.71 8.22-0.3 4.54-3.92 36.82-8.04 71.75-4.12 34.92-10.19 86.45-13.48 114.5-3.29 28.05-8.7 73.05-12.01 100-3.31 26.95-6.7 53.73-7.53 59.5-0.83 5.77-1.72 11.29-1.97 12.25-0.32 1.24-2.72 2.32-8.2 3.71-4.26 1.07-12.25 2.85-17.75 3.95-5.5 1.1-16.3 2.91-24 4.01-7.7 1.11-20.52 2.73-28.5 3.6-8.44 0.91-28.51 1.81-48 2.15-18.68 0.32-46.33 0.08-62.5-0.55-15.95-0.61-35.07-1.8-42.5-2.63-7.43-0.83-19.13-2.41-26-3.51-6.88-1.1-16.66-2.89-21.75-3.99-5.09-1.09-9.93-2.66-10.75-3.49-0.82-0.83-1.5-2.85-1.5-4.5 0-1.65-2.02-18.86-4.48-38.25-2.46-19.39-7.39-59.55-10.94-89.25-3.56-29.7-6.61-56-7.08-62.89l22-17.65 9 0.06c6.83 0.04 10.57-0.49 15.5-2.19 3.57-1.23 8.98-4.09 12-6.34 3.02-2.25 7.15-6.09 9.17-8.54 2.02-2.45 4.83-6.93 6.23-9.95 1.41-3.02 3.36-8.58 6.1-19.21l27.32-24.64c15.03-13.56 28.3-24.96 29.5-25.34 1.2-0.38 7.8-1.4 27.18-3.86l49.59 22.55 4.79 6.5c3.05 4.14 7.13 8.07 11.21 10.8 3.53 2.37 8.66 5.12 11.41 6.12 2.75 1 7.7 2.12 11 2.5 3.42 0.39 8.79 0.2 12.5-0.45 3.68-0.64 9.53-2.73 13.48-4.8 3.84-2.02 9.24-5.96 12-8.76 2.76-2.79 6.46-7.74 8.23-11 1.85-3.41 4.08-9.93 5.28-15.41 1.14-5.23 2.68-10.4 3.42-11.5 0.74-1.1 5.28-6.5 10.09-12 4.8-5.5 14.06-16.2 20.58-23.77 6.52-7.57 13.11-14.64 14.64-15.72 1.53-1.07 3.35-1.96 4.05-1.98z"/>
</svg>